grf
version=1
nRows=11
nColumns=37
inDegrees=no
endheader
time	ground_force_1_vx	ground_force_1_vy	ground_force_1_vz	ground_force_1_px	ground_force_1_py	ground_force_1_pz	ground_moment_1_mx	ground_moment_1_my	ground_moment_1_mz	ground_force_2_vx	ground_force_2_vy	ground_force_2_vz	ground_force_2_px	ground_force_2_py	ground_force_2_pz	ground_moment_2_mx	ground_moment_2_my	ground_moment_2_mz	ground_force_3_vx	ground_force_3_vy	ground_force_3_vz	ground_force_3_px	ground_force_3_py	ground_force_3_pz	ground_moment_3_mx	ground_moment_3_my	ground_moment_3_mz	ground_force_4_vx	ground_force_4_vy	ground_force_4_vz	ground_force_4_px	ground_force_4_py	ground_force_4_pz	ground_moment_4_mx	ground_moment_4_my	ground_moment_4_mz
      4.69000000	      0.00000000	     -0.00000000	      0.00000000	      0.00000000	      0.00000000	      0.00000000	      0.00000000	      0.00000000	      0.00000000	    -10.28634930	      0.37200540	   -794.65490723	   -238.20581206	  -1127.49730215	      0.00000000	      0.00000000	     -0.00000000	    -71.94745193	      0.00000000	     -0.00000000	      0.00000000	      0.00000000	      0.00000000	      0.00000000	      0.00000000	      0.00000000	      0.00000000	    -35.13178874	     16.25897333	     76.70676422	    603.23632391	   -563.36225041	      0.00000000	      0.00000000	     -0.00000000	    -16.28464533
      4.70000000	      0.00000000	     -0.00000000	      0.00000000	      0.00000000	      0.00000000	      0.00000000	      0.00000000	      0.00000000	      0.00000000	    -11.11414337	      2.01286173	   -789.60443115	   -236.88695519	  -1127.17835523	      0.00000000	      0.00000000	     -0.00000000	   -354.17812550	      0.00000000	     -0.00000000	      0.00000000	      0.00000000	      0.00000000	      0.00000000	      0.00000000	      0.00000000	      0.00000000	    -34.96591425	     16.31010361	     76.20504761	    605.83136343	   -565.38876205	      0.00000000	     -0.00000000	     -0.00000000	   -177.53866845
      4.71000000	      0.00000000	     -0.00000000	      0.00000000	      0.00000000	      0.00000000	      0.00000000	      0.00000000	      0.00000000	      0.00000000	    -12.42561245	      3.37477016	   -783.14855957	   -235.78471817	  -1127.66865008	      0.00000000	      0.00000000	     -0.00000000	   -876.45131260	      0.00000000	     -0.00000000	      0.00000000	      0.00000000	      0.00000000	      0.00000000	      0.00000000	      0.00000000	      0.00000000	    -34.91432809	     16.50307007	     75.85528564	    602.40204140	   -567.05560234	      0.00000000	      0.00000000	     -0.00000000	    -67.10833253
      4.72000000	      0.00000000	     -0.00000000	      0.00000000	      0.00000000	      0.00000000	      0.00000000	      0.00000000	      0.00000000	      0.00000000	    -12.06831169	      4.26582432	   -776.39013672	   -235.49796201	  -1127.50806045	      0.00000000	      0.00000000	     -0.00000000	   -780.83451478	      0.00000000	     -0.00000000	      0.00000000	      0.00000000	      0.00000000	      0.00000000	      0.00000000	      0.00000000	      0.00000000	    -34.83762218	     16.16859168	     75.85544586	    604.23379444	   -567.31790748	      0.00000000	      0.00000000	      0.00000000	    103.42695838
      4.73000000	      0.00000000	     -0.00000000	      0.00000000	      0.00000000	      0.00000000	      0.00000000	      0.00000000	      0.00000000	      0.00000000	    -12.32384491	      4.62199783	   -769.67993164	   -235.11510498	  -1127.91270690	      0.00000000	      0.00000000	      0.00000000	  -1342.13794503	      0.00000000	     -0.00000000	      0.00000000	      0.00000000	      0.00000000	      0.00000000	      0.00000000	      0.00000000	      0.00000000	    -34.82499169	     16.52862281	     75.80566406	    604.19816078	   -563.37429991	      0.00000000	      0.00000000	     -0.00000000	   -297.58651712
      4.74000000	      0.00000000	     -0.00000000	      0.00000000	      0.00000000	      0.00000000	      0.00000000	      0.00000000	      0.00000000	      0.00000000	    -11.78835583	      4.31634092	   -762.21533203	   -235.07522340	  -1127.67449362	      0.00000000	      0.00000000	     -0.00000000	  -1260.47407411	      0.00000000	     -0.00000000	      0.00000000	      0.00000000	      0.00000000	      0.00000000	      0.00000000	      0.00000000	      0.00000000	    -34.86307766	     16.12928695	     75.10375977	    606.55340075	   -565.01871470	      0.00000000	      0.00000000	     -0.00000000	   -109.16956842
      4.75000000	      0.00000000	     -0.00000000	      0.00000000	      0.00000000	      0.00000000	      0.00000000	      0.00000000	      0.00000000	      0.00000000	    -11.06210327	      4.45736027	   -758.78088379	   -235.23886438	  -1127.86073000	      0.00000000	      0.00000000	      0.00000000	  -1518.41591030	      0.00000000	     -0.00000000	      0.00000000	      0.00000000	      0.00000000	      0.00000000	      0.00000000	      0.00000000	      0.00000000	    -34.63253261	     16.15801542	     75.70450592	    602.34789429	   -563.00364062	      0.00000000	      0.00000000	      0.00000000	   -107.81903688
      4.76000000	      0.00000000	     -0.00000000	      0.00000000	      0.00000000	      0.00000000	      0.00000000	      0.00000000	      0.00000000	      0.00000000	    -11.78926086	      2.63607764	   -757.77423096	   -235.09938235	  -1128.03591572	      0.00000000	      0.00000000	     -0.00000000	  -1574.37844320	      0.00000000	     -0.00000000	      0.00000000	      0.00000000	      0.00000000	      0.00000000	      0.00000000	      0.00000000	      0.00000000	    -34.78541423	     16.20652312	     75.55611420	    603.81908103	   -565.77213945	      0.00000000	      0.00000000	     -0.00000000	    -15.66404519
      4.77000000	      0.00000000	     -0.00000000	      0.00000000	      0.00000000	      0.00000000	      0.00000000	      0.00000000	      0.00000000	      0.00000000	    -12.01586914	      1.64203107	   -759.79199219	   -235.54189251	  -1128.81667731	      0.00000000	      0.00000000	     -0.00000000	  -1584.04914726	      0.00000000	     -0.00000000	      0.00000000	      0.00000000	      0.00000000	      0.00000000	      0.00000000	      0.00000000	      0.00000000	    -34.94064573	     15.91031571	     75.26128387	    607.09253843	   -564.88195092	      0.00000000	      0.00000000	      0.00000000	    -56.03421668
      4.78000000	      0.00000000	     -0.00000000	      0.00000000	      0.00000000	      0.00000000	      0.00000000	      0.00000000	      0.00000000	      0.00000000	    -13.48257351	      1.18448007	   -755.86059570	   -235.61161820	  -1128.20701614	      0.00000000	      0.00000000	     -0.00000000	  -1755.23589961	      0.00000000	     -0.00000000	      0.00000000	      0.00000000	      0.00000000	      0.00000000	      0.00000000	      0.00000000	      0.00000000	    -34.69837809	     16.28151815	     75.74886322	    603.68101404	   -565.92921017	      0.00000000	      0.00000000	     -0.00000000	   -132.42338242
      4.79000000	      0.00000000	     -0.00000000	      0.00000000	      0.00000000	      0.00000000	      0.00000000	      0.00000000	      0.00000000	      0.00000000	    -14.35133171	      1.46349657	   -758.52801514	   -236.07957435	  -1129.51539047	      0.00000000	      0.00000000	     -0.00000000	  -1842.05377226	      0.00000000	     -0.00000000	      0.00000000	      0.00000000	      0.00000000	      0.00000000	      0.00000000	      0.00000000	      0.00000000	    -34.63170481	     16.31071584	     75.60119629	    606.52276407	   -563.41193772	      0.00000000	      0.00000000	     -0.00000000	   -160.48388095
